<svg xmlns="http://www.w3.org/2000/svg" width="322" height="113" viewBox="0 0 322 113">
    <g fill="none" fill-rule="evenodd">
        <g fill="#0D1D31" fill-rule="nonzero">
            <g>
                <g>
                    <path d="M19.652 20.75L14.796 9.393 9.94 20.75h9.712zm.057 11.157l3.427-3.017-2.313-5.493H8.912l-2.314 5.35 3.6 3.16H0l3.656-3.273L16.424 0l12.71 28.69 3.685 3.246H19.71v-.029zM50.639 28.724v-10.4c0-3.411-1.457-4.623-4.314-4.623-1.429 0-3.029.338-4.771.93v14.093l3.2 2.762H33.268l3.2-2.762V15.166l-3.057-1.578 8.142-3.692v3.917c2.771-2.198 5.57-3.636 8.713-3.636 3.343 0 5.428 1.804 5.428 6.314v12.233l3.2 2.762H47.439l3.2-2.762M82.656 18.113v-3.42c0-5.51-2.004-12.406-8.7-12.406-6.697 0-8.7 6.924-8.7 12.407v3.42c0 5.539 2.003 12.406 8.7 12.406 6.696 0 8.7-6.84 8.7-12.407zm-24.21-1.695c0-7.8 5.437-15.968 15.51-15.968s15.51 8.196 15.51 15.968c0 7.8-5.494 15.968-15.51 15.968s-15.51-8.196-15.51-15.968zM95.306 26.558v-13.56h-4.49l9.49-8.5v6.368H107v2.132h-6.694v13.9c0 2.047.96 2.843 2.598 2.843 1.667 0 3.023-.568 4.04-1.506-1.017 2.7-3.7 4.15-6.638 4.15-3.023.029-5-1.308-5-5.827M124.707 28.683V17.98c0-3.71-1.847-4.36-4.04-4.36-1.588 0-2.915.254-4.849.934V28.71l3.233 2.775H107.45l3.232-2.775V5.38l-3.088-1.67L115.818 0v13.704c2.915-2.378 5.657-3.652 8.889-3.652 3.232 0 5.137 1.557 5.137 5.946V28.71l3.232 2.775h-11.601l3.232-2.803M137.294 18.042h9.537c0-2.925-1.374-5.85-4.582-5.85-2.492.028-4.697 1.874-4.955 5.85zm14.378 6.107c0 4.232-3.265 8.237-8.822 8.237-6.1 0-10.224-4.46-10.224-10.85 0-6.533 4.096-11.19 10.139-11.19 5.384 0 9.193 3.72 9.193 9.543h-14.635c.344 5.254 3.465 8.236 7.59 8.236 3.007 0 5.413-1.59 6.759-3.976zM170.84 13.532c0 1.832-1.284 3.072-3.024 3.072-2.14 0-2.882-1.832-4.765-1.832-1.456 0-2.369 1.043-2.369 2.762v11.19l3.196 2.762h-11.47l3.195-2.762V15.166l-3.053-1.578 8.132-3.692v4.566c1.684-2.734 4.08-4.172 6.363-4.172 2.112 0 3.795 1.269 3.795 3.242" transform="translate(-153 -3657) translate(154 3544.416) translate(75.08 153.032)"/>
                </g>
            </g>
        </g>
    </g>
</svg>
