<?xml version="1.0" encoding="utf-8"?>
<!-- Generator: Adobe Illustrator 23.0.1, SVG Export Plug-In . SVG Version: 6.00 Build 0)  -->
<svg version="1.1" id="Layer_1" xmlns="http://www.w3.org/2000/svg" xmlns:xlink="http://www.w3.org/1999/xlink" x="0px" y="0px"
	 viewBox="0 0 130 14" style="enable-background:new 0 0 130 14;" xml:space="preserve">
<style type="text/css">
	.st0{fill:#FFFFFF;}
</style>
<g>
	<path class="st0" d="M10.5,3.9L10.5,3.9c0-0.7-0.6-1.3-1.2-1.3H3.9c-0.7,0-1.2,0.5-1.2,1.2v0.1c0,0.7,0.5,1.2,1.2,1.2h4.8
		c1.2,0,2.3,0.5,3.1,1.4c0.1,0.1,0.1,0.1,0.2,0.2c0.6,0.7,0.9,1.7,0.9,2.7c0,2.3-1.9,4.2-4.2,4.2H4.5c-2.3,0-4.2-1.9-4.2-4.2h2.4
		c0,1,0.8,1.8,1.8,1.8h4.2c1,0,1.8-0.8,1.8-1.8c0-1-0.8-1.8-1.8-1.8H3.9c-1,0-1.8-0.4-2.5-1C1.3,6.4,1.1,6.2,1,6
		c-0.4-0.6-0.6-1.3-0.6-2V3.9c0-2,1.6-3.6,3.6-3.6h5.4c2,0,3.6,1.6,3.6,3.6v0.1H10.5z"/>
	<path class="st0" d="M28,0.3v2.4h-5.5v10.9h-2.4V2.7h-5.5V0.3H28z"/>
	<path class="st0" d="M39.5,13.6h-2.7l-1.2-2.4l-2.9-5.7l-2.9,5.7l-1.2,2.4H26l1.2-2.4l5.6-10.9l5.6,10.9L39.5,13.6z"/>
	<path class="st0" d="M52,11.2l1.2,2.4h-2.7l-1.2-2.4L48,8.7L48,8.6c-0.4-0.7-1.2-1.1-2-1.1h-2.4v6.1h-2.4V0.3h8.4
		c1,0,1.9,0.4,2.5,1.1c0.6,0.7,1.1,1.6,1.1,2.5c0,1.5-0.9,2.7-2.1,3.3c-0.3,0.2-0.7,0.3-1,0.3c0,0,0,0,0,0L52,11.2z M49.6,5.1
		c0.2,0,0.3,0,0.5-0.1c0.4-0.2,0.7-0.6,0.7-1.1c0-0.4-0.2-0.7-0.4-0.9c-0.2-0.2-0.4-0.3-0.9-0.3h-6v2.4H49.6z"/>
	<path class="st0" d="M78.7,0.3v13.3h-2.4V5.1L74,6.9l-1.9,1.5l-1.9-1.5l-2.3-1.8v8.5h-2.4V0.3l2.4,1.8l4.3,3.3l4.3-3.3L78.7,0.3z"
		/>
	<path class="st0" d="M94.5,0.3v6.6c0,3.7-3,6.6-6.6,6.6c-3.7,0-6.6-3-6.6-6.6V0.3h2.4v6.6c0,2.4,1.9,4.3,4.3,4.3s4.3-1.9,4.3-4.3
		V0.3H94.5z"/>
	<path class="st0" d="M107.2,3.9L107.2,3.9c0-0.7-0.6-1.3-1.2-1.3h-5.4c-0.7,0-1.2,0.5-1.2,1.2v0.1c0,0.7,0.5,1.2,1.2,1.2h4.8
		c1.2,0,2.3,0.5,3.1,1.4c0.1,0.1,0.1,0.1,0.2,0.2c0.6,0.7,0.9,1.7,0.9,2.7c0,2.3-1.9,4.2-4.2,4.2h-4.2c-2.3,0-4.2-1.9-4.2-4.2h2.4
		c0,1,0.8,1.8,1.8,1.8h4.2c1,0,1.8-0.8,1.8-1.8c0-1-0.8-1.8-1.8-1.8h-4.8c-1,0-1.8-0.4-2.5-1c-0.2-0.2-0.3-0.3-0.5-0.6
		c-0.4-0.6-0.6-1.3-0.6-2V3.9c0-2,1.6-3.6,3.6-3.6h5.4c2,0,3.6,1.6,3.6,3.6v0.1H107.2z"/>
	<path class="st0" d="M112,13.6V0.3h2.4v13.3H112z"/>
	<path class="st0" d="M119,6.9c0,2.4,1.9,4.3,4.3,4.3h6.6v2.4h-6.6c-3.7,0-6.6-3-6.6-6.6c0-3.7,3-6.6,6.6-6.6h6.6v2.4h-6.6
		C120.9,2.6,119,4.6,119,6.9z"/>
</g>
</svg>
