<svg xmlns="http://www.w3.org/2000/svg" width="135" height="135" viewBox="0 0 135 135">
    <g fill="none" fill-rule="evenodd">
        <g>
            <g>
                <path fill="#0D1D31" d="M0 67.378c0 37.211 30.166 67.378 67.378 67.378 37.211 0 67.377-30.167 67.377-67.378C134.755 30.166 104.59 0 67.378 0 30.166 0 0 30.166 0 67.378" transform="translate(-1156 -4191) translate(1156 4191)"/>
                <path fill="#00F6E7" d="M111.474 60.403c0-2.181-.835-3.272-2.504-3.272-.782 0-1.392.29-1.828.869-.436.579-.654 1.41-.654 2.493 0 2.12.827 3.181 2.482 3.181 1.67 0 2.504-1.09 2.504-3.271zm-.068-10.244h3.52v16.065h-3.429v-1.512c-.782 1.189-1.948 1.783-3.498 1.783-1.564 0-2.797-.55-3.7-1.647-.917-1.098-1.376-2.58-1.376-4.445 0-1.866.459-3.347 1.376-4.445.903-1.099 2.136-1.647 3.7-1.647 1.475 0 2.61.556 3.407 1.67v-5.822zm-11.134 5.269c.73.744 1.094 1.8 1.094 3.17v7.626h-3.52v-6.927c0-1.324-.624-1.986-1.872-1.986-.632 0-1.159.21-1.58.632-.421.422-.632 1.016-.632 1.783v6.498h-3.52V54.581h3.43v1.648c.903-1.28 2.121-1.918 3.655-1.918 1.234 0 2.215.372 2.945 1.117zm-16.03 8.077c.466-.414.698-1.034.698-1.861v-.858c-.21.226-.601.376-1.173.452l-1.444.157c-1.128.12-1.692.587-1.692 1.4 0 .406.15.729.451.97.301.24.722.36 1.264.36.797 0 1.429-.206 1.895-.62zm1.06 2.719c-.181-.346-.279-.782-.294-1.309-.782 1.053-2.023 1.58-3.723 1.58-1.278 0-2.305-.316-3.08-.948-.774-.632-1.162-1.504-1.162-2.617 0-2.166 1.52-3.377 4.558-3.633l1.828-.158c1.008-.105 1.511-.489 1.511-1.15 0-.783-.594-1.174-1.782-1.174-.722 0-1.23.109-1.523.327-.294.218-.47.62-.53 1.208h-3.498c.21-2.693 2.069-4.04 5.574-4.04 3.46 0 5.19 1.197 5.19 3.588v6.183c0 .977.157 1.692.473 2.143h-3.542zM74.517 55.45c.722.76 1.082 1.831 1.082 3.215v7.559h-3.52v-6.95c0-1.308-.578-1.963-1.737-1.963-.616 0-1.105.21-1.466.632-.361.422-.542 1.038-.542 1.85v6.431h-3.52v-6.95c0-1.308-.579-1.963-1.737-1.963-.617 0-1.11.21-1.478.632-.369.422-.553 1.038-.553 1.85v6.431h-3.52V54.581h3.43v1.648c.857-1.28 1.963-1.918 3.317-1.918 1.745 0 2.948.699 3.61 2.098.948-1.399 2.159-2.098 3.633-2.098 1.278 0 2.279.38 3 1.139zm-27.234 3.757h5.144c-.12-.722-.406-1.286-.857-1.692-.451-.407-1.03-.61-1.738-.61-1.444 0-2.293.768-2.55 2.302zm8.596 2.233H47.26c.12.798.414 1.407.88 1.828.467.421 1.06.632 1.783.632 1.143 0 1.925-.436 2.346-1.309h3.34c-.316 1.204-.985 2.155-2.008 2.855-1.023.699-2.249 1.049-3.678 1.049-1.805 0-3.264-.557-4.378-1.67-1.113-1.113-1.67-2.587-1.67-4.422 0-1.85.55-3.324 1.648-4.423 1.083-1.113 2.535-1.67 4.355-1.67 1.805 0 3.264.58 4.377 1.738 1.083 1.173 1.624 2.738 1.624 4.693v.7zm-17.012-8.19h3.362v-2.978h-3.362v2.978zm-.09 12.974h3.52V54.581h-3.52v11.643zm-3.125-10.796c.73.744 1.094 1.8 1.094 3.17v7.626h-3.52v-6.927c0-1.324-.624-1.986-1.872-1.986-.632 0-1.158.21-1.58.632-.421.422-.631 1.016-.631 1.783v6.498h-3.52V54.581h3.43v1.648c.902-1.28 2.12-1.918 3.655-1.918 1.233 0 2.215.372 2.944 1.117z" transform="translate(-1156 -4191) translate(1156 4191)"/>
                <path fill="#FFF" d="M85.366 80.874c.436-.557.654-1.37.654-2.437 0-1.068-.218-1.88-.654-2.437-.437-.557-1.06-.835-1.873-.835-.828 0-1.46.278-1.895.835-.437.557-.655 1.369-.655 2.437 0 1.068.218 1.88.655 2.437.436.556 1.067.834 1.895.834.812 0 1.436-.278 1.873-.834zm-6.318 1.985c-1.113-1.113-1.67-2.587-1.67-4.422 0-1.85.557-3.332 1.67-4.445 1.098-1.098 2.58-1.647 4.445-1.647 1.865 0 3.347.549 4.445 1.647 1.098 1.098 1.647 2.58 1.647 4.445 0 1.85-.549 3.324-1.647 4.422-1.113 1.113-2.595 1.67-4.445 1.67s-3.332-.557-4.445-1.67zm-6.679-11.574h3.362v-2.979H72.37v2.979zm-.09 12.974h3.52V72.616h-3.52v11.643zm-5.482-5.822c0-2.181-.835-3.272-2.505-3.272-.782 0-1.392.29-1.828.869-.436.579-.654 1.41-.654 2.493 0 2.121.827 3.181 2.482 3.181 1.67 0 2.505-1.09 2.505-3.27zm-.068-10.244h3.52v16.065h-3.43v-1.511c-.782 1.188-1.948 1.782-3.497 1.782-1.565 0-2.798-.549-3.7-1.647-.918-1.098-1.377-2.58-1.377-4.445 0-1.865.459-3.347 1.376-4.445.903-1.098 2.136-1.647 3.7-1.647 1.475 0 2.61.556 3.408 1.67v-5.822zm-13.56 4.423h3.52v11.642h-3.43v-1.647c-.903 1.279-2.121 1.918-3.655 1.918-1.234 0-2.215-.372-2.945-1.117-.73-.744-1.095-1.801-1.095-3.17v-7.626h3.52v6.927c0 1.323.625 1.985 1.873 1.985.632 0 1.158-.21 1.58-.632.421-.42.632-1.015.632-1.782v-6.498zm-9.093 2.572h-2.234v5.438c0 .39.098.657.293.8.196.144.542.215 1.038.215h.903v2.617c-.421.06-.963.09-1.625.09-1.459 0-2.512-.259-3.159-.778-.646-.519-.97-1.372-.97-2.56v-5.822h-1.737v-2.572h1.737v-3.453h3.52v3.453h2.234v2.572zm-17.52 8.45c-.895-.64-1.395-1.666-1.501-3.08h3.43c.06.616.26 1.053.598 1.309.338.255.884.383 1.636.383 1.309 0 1.963-.376 1.963-1.128 0-.361-.143-.636-.429-.824-.286-.188-.812-.342-1.58-.462l-1.511-.249c-2.618-.406-3.926-1.594-3.926-3.564 0-1.174.45-2.08 1.354-2.72.902-.639 2.196-.958 3.88-.958 3.475 0 5.28 1.33 5.416 3.993h-3.272c-.015-1.097-.73-1.646-2.144-1.646-1.188 0-1.782.368-1.782 1.105 0 .33.135.587.406.767.27.18.7.316 1.286.406l1.738.248c1.399.21 2.429.61 3.09 1.196.663.587.993 1.392.993 2.414 0 1.204-.485 2.133-1.454 2.787-.971.654-2.336.982-4.096.982-1.835 0-3.2-.32-4.095-.96z" transform="translate(-1156 -4191) translate(1156 4191)"/>
                <path fill="#00F6E7" d="M19.829 82.363c0 1.097.889 1.986 1.986 1.986 1.096 0 1.985-.89 1.985-1.986 0-1.097-.889-1.986-1.985-1.986-1.097 0-1.986.89-1.986 1.986" transform="translate(-1156 -4191) translate(1156 4191)"/>
            </g>
        </g>
    </g>
</svg>
