<?xml version="1.0" encoding="utf-8"?>
<!-- Generator: Adobe Illustrator 23.0.1, SVG Export Plug-In . SVG Version: 6.00 Build 0)  -->
<svg version="1.1" id="Layer_1" xmlns="http://www.w3.org/2000/svg" xmlns:xlink="http://www.w3.org/1999/xlink" x="0px" y="0px"
	 viewBox="0 0 135 135" style="enable-background:new 0 0 135 135;" xml:space="preserve">
<style type="text/css">
	.st0{fill-rule:evenodd;clip-rule:evenodd;fill:#282828;}
	.st1{fill-rule:evenodd;clip-rule:evenodd;fill:#FFFFFF;}
	.st2{fill-rule:evenodd;clip-rule:evenodd;fill:#FEA365;}
	.st3{fill:#FEA365;}
</style>
<path class="st0" d="M0,67.4c0,37.2,30.2,67.4,67.4,67.4s67.4-30.2,67.4-67.4S104.6,0,67.4,0S0,30.2,0,67.4"/>
<path class="st1" d="M94.4,80.9c0.4-0.6,0.7-1.4,0.7-2.4c0-1.1-0.2-1.9-0.7-2.4c-0.4-0.6-1.1-0.8-1.9-0.8s-1.5,0.3-1.9,0.8
	c-0.4,0.6-0.7,1.4-0.7,2.4c0,1.1,0.2,1.9,0.7,2.4c0.4,0.6,1.1,0.8,1.9,0.8C93.3,81.7,93.9,81.4,94.4,80.9z M88,82.9
	c-1.1-1.1-1.7-2.6-1.7-4.4s0.6-3.3,1.7-4.4s2.6-1.6,4.4-1.6s3.3,0.5,4.4,1.6s1.6,2.6,1.6,4.4s-0.5,3.3-1.6,4.4s-2.6,1.7-4.4,1.7
	S89.2,84,88,82.9z M81.4,71.3h3.4v-3h-3.4V71.3L81.4,71.3z M81.3,84.3h3.5V72.6h-3.5V84.3z M75.8,78.4c0-2.2-0.8-3.3-2.5-3.3
	c-0.8,0-1.4,0.3-1.8,0.9c-0.4,0.6-0.7,1.4-0.7,2.5c0,2.1,0.8,3.2,2.5,3.2S75.8,80.6,75.8,78.4L75.8,78.4z M75.7,68.2h3.5v16.1h-3.4
	v-1.5c-0.8,1.2-1.9,1.8-3.5,1.8s-2.8-0.5-3.7-1.6c-0.9-1.1-1.4-2.6-1.4-4.4s0.5-3.3,1.4-4.4c0.9-1.1,2.1-1.6,3.7-1.6
	c1.5,0,2.6,0.6,3.4,1.7C75.7,74,75.7,68.2,75.7,68.2z M62.2,72.6h3.5v11.6h-3.4v-1.6c-0.9,1.3-2.1,1.9-3.7,1.9
	c-1.2,0-2.2-0.4-2.9-1.1s-1.1-1.8-1.1-3.2v-7.6h3.5v6.9c0,1.3,0.6,2,1.9,2c0.6,0,1.2-0.2,1.6-0.6c0.4-0.4,0.6-1,0.6-1.8
	C62.2,79.1,62.2,72.6,62.2,72.6z M53.1,75.2h-2.2v5.4c0,0.4,0.1,0.7,0.3,0.8c0.2,0.1,0.5,0.2,1,0.2h0.9v2.6c-0.4,0.1-1,0.1-1.6,0.1
	c-1.5,0-2.5-0.3-3.2-0.8c-0.6-0.5-1-1.4-1-2.6v-5.8h-1.7v-2.6h1.7V69h3.5v3.5H53C53.1,72.6,53.1,75.2,53.1,75.2z M35.6,83.6
	c-0.9-0.6-1.4-1.7-1.5-3.1h3.4c0.1,0.6,0.3,1.1,0.6,1.3c0.3,0.3,0.9,0.4,1.6,0.4c1.3,0,2-0.4,2-1.1c0-0.4-0.1-0.6-0.4-0.8
	c-0.3-0.2-0.8-0.3-1.6-0.5l-1.5-0.2c-2.6-0.4-3.9-1.6-3.9-3.6c0-1.2,0.5-2.1,1.4-2.7c0.9-0.6,2.2-1,3.9-1c3.5,0,5.3,1.3,5.4,4h-3.3
	c0-1.1-0.7-1.6-2.1-1.6c-1.2,0-1.8,0.4-1.8,1.1c0,0.3,0.1,0.6,0.4,0.8c0.3,0.2,0.7,0.3,1.3,0.4l1.7,0.2c1.4,0.2,2.4,0.6,3.1,1.2
	c0.7,0.6,1,1.4,1,2.4c0,1.2-0.5,2.1-1.5,2.8c-1,0.7-2.3,1-4.1,1C37.8,84.6,36.5,84.3,35.6,83.6L35.6,83.6z"/>
<path class="st2" d="M28.8,82.4c0,1.1,0.9,2,2,2s2-0.9,2-2s-0.9-2-2-2C29.7,80.4,28.8,81.3,28.8,82.4"/>
<g>
	<g>
		<path class="st3" d="M43.4,66.4c0,0-0.4-0.1-1.3-0.2c-0.9-0.1-1.7-0.4-2.5-0.7c-0.8-0.3-1.4-0.7-2-1.1l2.5-3.1
			c0.7,0.5,1.5,0.8,2.3,1.1c0.8,0.3,1.6,0.4,2.3,0.4c1,0,1.7-0.1,2.2-0.3s0.8-0.5,0.8-0.9c0-0.3-0.1-0.6-0.3-0.8s-0.5-0.3-0.9-0.4
			c-0.4-0.1-0.9-0.1-1.5-0.2c-0.2,0-0.4,0-0.5-0.1c-0.2,0-0.4,0-0.6-0.1h-0.1h-0.1c-1.2-0.1-2.1-0.3-2.8-0.6
			c-0.7-0.2-1.3-0.6-1.8-1.3c-0.5-0.6-0.7-1.5-0.7-2.7c0-1,0.2-1.9,0.7-2.7c0.5-0.7,1.2-1.3,2.2-1.7c0.9-0.4,2.1-0.6,3.4-0.6
			c0.8,0,1.6,0.1,2.3,0.2c0.8,0.2,1.5,0.4,2.2,0.7s1.4,0.7,2,1.1l-2.4,3c-0.7-0.4-1.4-0.7-2.1-0.9c-0.7-0.2-1.4-0.3-2.1-0.3
			c-0.8,0-1.5,0.1-1.9,0.3C42.2,54.7,42,55,42,55.3s0.1,0.5,0.4,0.6c0.2,0.1,0.5,0.2,0.9,0.3s0.9,0.1,1.6,0.2c0.1,0,0.2,0,0.3,0
			c0.1,0,0.2,0,0.3,0h0.1h0.1c1.2,0.1,2.2,0.3,2.9,0.5s1.4,0.7,1.9,1.3c0.5,0.7,0.8,1.6,0.8,2.9c0,1.1-0.3,2-0.8,2.8
			c-0.5,0.8-1.3,1.3-2.3,1.8c-1,0.4-2.2,0.6-3.6,0.6C43.9,66.4,43.4,66.4,43.4,66.4z"/>
		<path class="st3" d="M53.5,50.7h7.6v3.5h-7.6V50.7z M56.1,65.3c-0.6-0.7-0.9-1.7-0.9-3.1v-16h4.1v14.9c0,0.4,0.1,0.7,0.2,0.9
			c0.1,0.2,0.4,0.3,0.7,0.3h1v3.9h-2.1C57.7,66.3,56.7,66,56.1,65.3z"/>
		<path class="st3" d="M65.2,65.3c-0.8-0.8-1.2-2-1.2-3.6c0-1.5,0.5-2.7,1.4-3.4c0.9-0.8,2.3-1.1,4.1-1.1h3.9l0.2,3.1h-4.1
			c-0.6,0-1.1,0.1-1.4,0.4c-0.3,0.2-0.5,0.6-0.5,1.1s0.2,0.9,0.6,1.1c0.4,0.2,1,0.4,1.8,0.4c1.1,0,1.9-0.1,2.4-0.4
			c0.5-0.2,0.8-0.6,0.8-1.2l0.3,2.3c-0.1,0.6-0.3,1-0.8,1.4s-1,0.7-1.7,0.9c-0.7,0.2-1.4,0.3-2.2,0.3C67.2,66.4,66,66.1,65.2,65.3z
			 M73.2,56.4c0-0.7-0.2-1.3-0.7-1.7s-1.2-0.6-2-0.6c-0.6,0-1.1,0.1-1.7,0.3c-0.6,0.2-1.1,0.5-1.5,0.8l-2.5-2.5
			c0.6-0.7,1.4-1.3,2.4-1.6c1-0.4,2.1-0.6,3.4-0.6c1.4,0,2.5,0.2,3.5,0.7s1.7,1.1,2.2,2s0.8,1.9,0.8,3.1v10h-3.7v-9.9H73.2z"/>
		<path class="st3" d="M81,50.7h4.4v15.5H81V50.7z M88.9,54.6c-0.3-0.1-0.6-0.1-1-0.1c-0.8,0-1.5,0.3-1.9,0.8
			c-0.5,0.5-0.7,1.3-0.7,2.2l-0.3-4c0.4-0.9,1-1.6,1.7-2.2c0.7-0.5,1.4-0.8,2.2-0.8c0.6,0,1.2,0.1,1.8,0.3c0.5,0.2,1,0.5,1.4,0.9
			L89.7,55C89.5,54.9,89.2,54.7,88.9,54.6z"/>
	</g>
</g>
</svg>
