<?xml version="1.0" encoding="utf-8"?>
<!-- Generator: Adobe Illustrator 23.0.1, SVG Export Plug-In . SVG Version: 6.00 Build 0)  -->
<svg version="1.1" id="Layer_1" xmlns="http://www.w3.org/2000/svg" xmlns:xlink="http://www.w3.org/1999/xlink" x="0px" y="0px"
	 viewBox="0 0 135 135" style="enable-background:new 0 0 135 135;" xml:space="preserve">
<style type="text/css">
	.st0{fill-rule:evenodd;clip-rule:evenodd;fill:#FFFFFF;}
	.st1{fill-rule:evenodd;clip-rule:evenodd;fill:#282828;}
	.st2{fill-rule:evenodd;clip-rule:evenodd;fill:#522D7D;}
	.st3{fill:#522D7D;}
</style>
<path class="st0" d="M0,67.4c0,37.2,30.2,67.4,67.4,67.4c37.2,0,67.4-30.2,67.4-67.4C134.8,30.2,104.6,0,67.4,0S0,30.2,0,67.4"/>
<path class="st1" d="M93.4,80.9c0.4-0.6,0.7-1.4,0.7-2.4c0-1.1-0.2-1.9-0.7-2.4c-0.4-0.6-1.1-0.8-1.9-0.8c-0.8,0-1.5,0.3-1.9,0.8
	c-0.4,0.6-0.7,1.4-0.7,2.4c0,1.1,0.2,1.9,0.7,2.4c0.4,0.6,1.1,0.8,1.9,0.8C92.3,81.7,92.9,81.4,93.4,80.9z M87,82.9
	c-1.1-1.1-1.7-2.6-1.7-4.4c0-1.8,0.6-3.3,1.7-4.4c1.1-1.1,2.6-1.6,4.4-1.6s3.3,0.5,4.4,1.6s1.6,2.6,1.6,4.4c0,1.8-0.5,3.3-1.6,4.4
	c-1.1,1.1-2.6,1.7-4.4,1.7S88.2,84,87,82.9z M80.4,71.3h3.4v-3h-3.4L80.4,71.3L80.4,71.3z M80.3,84.3h3.5V72.6h-3.5
	C80.3,72.6,80.3,84.3,80.3,84.3z M74.8,78.4c0-2.2-0.8-3.3-2.5-3.3c-0.8,0-1.4,0.3-1.8,0.9c-0.4,0.6-0.7,1.4-0.7,2.5
	c0,2.1,0.8,3.2,2.5,3.2C74,81.7,74.8,80.6,74.8,78.4L74.8,78.4z M74.7,68.2h3.5v16.1h-3.4v-1.5c-0.8,1.2-1.9,1.8-3.5,1.8
	c-1.6,0-2.8-0.5-3.7-1.6c-0.9-1.1-1.4-2.6-1.4-4.4s0.5-3.3,1.4-4.4c0.9-1.1,2.1-1.6,3.7-1.6c1.5,0,2.6,0.6,3.4,1.7
	C74.7,74,74.7,68.2,74.7,68.2z M61.2,72.6h3.5v11.6h-3.4v-1.6c-0.9,1.3-2.1,1.9-3.7,1.9c-1.2,0-2.2-0.4-2.9-1.1
	c-0.7-0.7-1.1-1.8-1.1-3.2v-7.6h3.5v6.9c0,1.3,0.6,2,1.9,2c0.6,0,1.2-0.2,1.6-0.6c0.4-0.4,0.6-1,0.6-1.8
	C61.2,79.1,61.2,72.6,61.2,72.6z M52.1,75.2h-2.2v5.4c0,0.4,0.1,0.7,0.3,0.8c0.2,0.1,0.5,0.2,1,0.2h0.9v2.6c-0.4,0.1-1,0.1-1.6,0.1
	c-1.5,0-2.5-0.3-3.2-0.8c-0.6-0.5-1-1.4-1-2.6v-5.8h-1.7v-2.6h1.7v-3.5h3.5v3.5h2.2C52.1,72.6,52.1,75.2,52.1,75.2z M34.6,83.6
	c-0.9-0.6-1.4-1.7-1.5-3.1h3.4c0.1,0.6,0.3,1.1,0.6,1.3c0.3,0.3,0.9,0.4,1.6,0.4c1.3,0,2-0.4,2-1.1c0-0.4-0.1-0.6-0.4-0.8
	c-0.3-0.2-0.8-0.3-1.6-0.5l-1.5-0.2c-2.6-0.4-3.9-1.6-3.9-3.6c0-1.2,0.5-2.1,1.4-2.7c0.9-0.6,2.2-1,3.9-1c3.5,0,5.3,1.3,5.4,4h-3.3
	c0-1.1-0.7-1.6-2.1-1.6c-1.2,0-1.8,0.4-1.8,1.1c0,0.3,0.1,0.6,0.4,0.8c0.3,0.2,0.7,0.3,1.3,0.4l1.7,0.2c1.4,0.2,2.4,0.6,3.1,1.2
	c0.7,0.6,1,1.4,1,2.4c0,1.2-0.5,2.1-1.5,2.8c-1,0.7-2.3,1-4.1,1C36.8,84.6,35.5,84.3,34.6,83.6L34.6,83.6z"/>
<path class="st2" d="M28.8,82.4c0,1.1,0.9,2,2,2c1.1,0,2-0.9,2-2c0-1.1-0.9-2-2-2C29.7,80.4,28.8,81.3,28.8,82.4"/>
<g>
	<g>
		<path class="st3" d="M42.4,66.4c0,0-0.4-0.1-1.3-0.2s-1.7-0.4-2.5-0.7c-0.8-0.3-1.4-0.7-2-1.1l2.5-3.1c0.7,0.5,1.5,0.8,2.3,1.1
			s1.6,0.4,2.3,0.4c1,0,1.7-0.1,2.2-0.3c0.5-0.2,0.8-0.5,0.8-0.9c0-0.3-0.1-0.6-0.3-0.8c-0.2-0.2-0.5-0.3-0.9-0.4
			c-0.4-0.1-0.9-0.1-1.5-0.2c-0.2,0-0.4,0-0.5-0.1c-0.2,0-0.4,0-0.6-0.1c0,0-0.1,0-0.1,0c0,0-0.1,0-0.1,0c-1.2-0.1-2.1-0.3-2.8-0.6
			c-0.7-0.2-1.3-0.6-1.8-1.3c-0.5-0.6-0.7-1.5-0.7-2.7c0-1,0.2-1.9,0.7-2.7c0.5-0.7,1.2-1.3,2.2-1.7c0.9-0.4,2.1-0.6,3.4-0.6
			c0.8,0,1.6,0.1,2.3,0.2c0.8,0.2,1.5,0.4,2.2,0.7c0.7,0.3,1.4,0.7,2,1.1l-2.4,3c-0.7-0.4-1.4-0.7-2.1-0.9c-0.7-0.2-1.4-0.3-2.1-0.3
			c-0.8,0-1.5,0.1-1.9,0.3c-0.5,0.2-0.7,0.5-0.7,0.8c0,0.3,0.1,0.5,0.4,0.6c0.2,0.1,0.5,0.2,0.9,0.3c0.4,0.1,0.9,0.1,1.6,0.2
			c0.1,0,0.2,0,0.3,0c0.1,0,0.2,0,0.3,0c0,0,0.1,0,0.1,0s0.1,0,0.1,0c1.2,0.1,2.2,0.3,2.9,0.5s1.4,0.7,1.9,1.3
			c0.5,0.7,0.8,1.6,0.8,2.9c0,1.1-0.3,2-0.8,2.8c-0.5,0.8-1.3,1.3-2.3,1.8c-1,0.4-2.2,0.6-3.6,0.6C42.9,66.4,42.4,66.4,42.4,66.4z"
			/>
		<path class="st3" d="M52.5,50.7h7.6v3.5h-7.6V50.7z M55.1,65.3c-0.6-0.7-0.9-1.7-0.9-3.1v-16h4.1v14.9c0,0.4,0.1,0.7,0.2,0.9
			c0.1,0.2,0.4,0.3,0.7,0.3h1v3.9h-2.1C56.7,66.3,55.7,66,55.1,65.3z"/>
		<path class="st3" d="M64.2,65.3c-0.8-0.8-1.2-2-1.2-3.6c0-1.5,0.5-2.7,1.4-3.4c0.9-0.8,2.3-1.1,4.1-1.1h3.9l0.2,3.1h-4.1
			c-0.6,0-1.1,0.1-1.4,0.4c-0.3,0.2-0.5,0.6-0.5,1.1c0,0.5,0.2,0.9,0.6,1.1s1,0.4,1.8,0.4c1.1,0,1.9-0.1,2.4-0.4
			c0.5-0.2,0.8-0.6,0.8-1.2l0.3,2.3c-0.1,0.6-0.3,1-0.8,1.4c-0.5,0.4-1,0.7-1.7,0.9c-0.7,0.2-1.4,0.3-2.2,0.3
			C66.2,66.4,65,66.1,64.2,65.3z M72.2,56.4c0-0.7-0.2-1.3-0.7-1.7c-0.5-0.4-1.2-0.6-2-0.6c-0.6,0-1.1,0.1-1.7,0.3
			c-0.6,0.2-1.1,0.5-1.5,0.8l-2.5-2.5c0.6-0.7,1.4-1.3,2.4-1.6c1-0.4,2.1-0.6,3.4-0.6c1.4,0,2.5,0.2,3.5,0.7c1,0.5,1.7,1.1,2.2,2
			c0.5,0.9,0.8,1.9,0.8,3.1v10h-3.7V56.4z"/>
		<path class="st3" d="M80,50.7h4.4v15.5H80V50.7z M87.9,54.6c-0.3-0.1-0.6-0.1-1-0.1c-0.8,0-1.5,0.3-1.9,0.8
			c-0.5,0.5-0.7,1.3-0.7,2.2l-0.3-4c0.4-0.9,1-1.6,1.7-2.2c0.7-0.5,1.4-0.8,2.2-0.8c0.6,0,1.2,0.1,1.8,0.3c0.5,0.2,1,0.5,1.4,0.9
			l-2.4,3.3C88.5,54.9,88.2,54.7,87.9,54.6z"/>
	</g>
</g>
</svg>
