<?xml version="1.0" encoding="utf-8"?>
<!-- Generator: Adobe Illustrator 23.0.1, SVG Export Plug-In . SVG Version: 6.00 Build 0)  -->
<svg version="1.1" id="Layer_1" xmlns="http://www.w3.org/2000/svg" xmlns:xlink="http://www.w3.org/1999/xlink" x="0px" y="0px"
	 viewBox="0 0 70 70" style="enable-background:new 0 0 70 70;" xml:space="preserve">
<style type="text/css">
	.st0{fill-rule:evenodd;clip-rule:evenodd;fill:#FFFFFF;}
	.st1{fill-rule:evenodd;clip-rule:evenodd;fill:#00F6E7;}
	.st2{fill:#0D1D31;}
</style>
<g>
	<g>
		<g transform="translate(-334 -2126) translate(334 2126)">
			<path class="st0" d="M35,0C15.7,0,0,15.7,0,35s15.7,35,35,35s35-15.7,35-35S54.3,0,35,0z M35,49.9l-4.2-4.2l6.7-6.8H21.1v-5.9
				h16.5l-6.7-6.8l4.2-4.2L48.8,36L35,49.9z"/>
			<polygon class="st1" points="48.8,36 35,49.9 30.9,45.8 37.6,39 21.1,39 21.1,33.1 37.6,33.1 30.9,26.3 35,22.1 			"/>
			<g>
				<polygon class="st2" points="48.8,36 35,49.9 30.9,45.8 37.6,39 21.1,39 21.1,33.1 37.6,33.1 30.9,26.3 35,22.1 				"/>
			</g>
		</g>
	</g>
</g>
</svg>
